<svg xmlns="http://www.w3.org/2000/svg"><symbol id="icon-facebook" viewBox="0 0 34.2 34.1"><path fill="#617ab9" d="M17.2 34c9.4 0 17-7.6 17-17s-7.6-17-17-17S.2 7.6.2 17s7.6 17 17 17"/><path fill="#ffffff" d="M13.1 14.1h1.8v-1.7c0-.8 0-1.9.6-2.6.5-.8 1.3-1.3 2.6-1.3 2.2 0 3.2.3 3.2.3l-.4 2.6s-.7-.2-1.4-.2-1.3.2-1.3.9v2H21l-.2 2.5h-2.6v8.8h-3.3v-8.8h-1.8v-2.5z"/></symbol><symbol id="icon-pinterest" viewBox="0 0 34.5 34.5"><path fill="#cd5756" d="M17.2 34.2c9.4 0 17-7.6 17-17s-7.6-17-17-17-17 7.6-17 17 7.6 17 17 17"/><path fill="#ffffff" d="M17.2 8.7c-4.7 0-8.5 3.8-8.5 8.5 0 3.5 2.1 6.5 5.1 7.8 0-.6 0-1.3.1-2 .2-.7 1.1-4.6 1.1-4.6s-.3-.5-.3-1.3c0-1.3.7-2.2 1.6-2.2.8 0 1.1.6 1.1 1.3 0 .8-.5 1.9-.8 3-.2.9.5 1.6 1.3 1.6 1.6 0 2.7-2.1 2.7-4.5 0-1.9-1.3-3.3-3.5-3.3-2.6 0-4.2 1.9-4.2 4.1 0 .7.2 1.3.6 1.7.2.2.2.3.1.5 0 .2-.1.5-.2.7-.1.2-.2.3-.4.2-1.2-.5-1.7-1.8-1.7-3.2 0-2.4 2-5.3 6.1-5.3 3.2 0 5.4 2.4 5.4 4.9 0 3.3-1.9 5.8-4.6 5.8-.9 0-1.8-.5-2.1-1.1 0 0-.5 2-.6 2.3-.2.7-.5 1.3-.9 1.8.8.2 1.6.3 2.4.3 4.7 0 8.5-3.8 8.5-8.5.2-4.7-3.6-8.5-8.3-8.5"/></symbol><symbol id="icon-twitter" viewBox="0 0 34.1 34.2"><path fill="#95cbef" d="M17 34.1c9.4 0 17-7.6 17-17S26.4.1 17 .1 0 7.7 0 17.1s7.6 17 17 17"/><path fill="#ffffff" d="M25.5 12.7c-.6.3-1.3.5-2 .6.7-.4 1.3-1.1 1.5-1.9-.7.4-1.4.7-2.2.8-.6-.7-1.5-1.1-2.6-1.1-1.9 0-3.5 1.6-3.5 3.5 0 .3 0 .5.1.8-2.9-.1-5.5-1.5-7.2-3.7-.3.5-.5 1.1-.5 1.8 0 1.2.6 2.3 1.6 2.9-.6 0-1.1-.2-1.6-.4 0 1.7 1.2 3.1 2.8 3.4-.3.1-.6.1-.9.1-.2 0-.4 0-.7-.1.4 1.4 1.7 2.4 3.3 2.4-1.2.9-2.7 1.5-4.3 1.5h-.8c1.5 1 3.4 1.6 5.4 1.6 6.4 0 9.9-5.3 9.9-9.9v-.5c.7-.5 1.3-1.1 1.7-1.8"/></symbol></svg>